<svg xmlns="http://www.w3.org/2000/svg" viewBox="0 0 270 270" fill="none">
<rect width="270" height="270" fill="var(--wai-bg, #ffffff)"/>
<path d="M171.752 60C192.328 60 209.001 76.6812 209.001 97.2529C209.001 117.825 192.324 134.502 171.752 134.502H171.748C192.32 134.502 208.997 151.179 208.997 171.751C208.997 192.323 192.32 209 171.748 209C151.176 209 134.499 192.323 134.499 171.751C134.499 192.323 117.822 209 97.25 209C76.6781 209 60 192.323 60 171.751C60.0001 151.179 76.6782 134.502 97.25 134.498C76.6781 134.498 60 117.821 60 97.249C60 76.6773 76.6743 60 97.25 60C117.826 60.0002 134.503 76.6774 134.503 97.249C134.503 76.6773 151.176 60 171.752 60Z" fill="var(--wai-fg, #003311)"/>
</svg>
