<svg viewBox="0 0 512 512" fill="none" xmlns="http://www.w3.org/2000/svg">
<rect width="512" height="512" fill="var(--wai-bg, #1B1D3A)"/>
<path d="M250.643 106H154.214C127.586 106 106 127.586 106 154.214V250.643C106 277.271 127.586 298.857 154.214 298.857H250.643C277.271 298.857 298.857 277.271 298.857 250.643V154.214C298.857 127.586 277.271 106 250.643 106Z" fill="var(--wai-fg, #F59F00)"/>
<path d="M304.214 159.571H207.786C181.158 159.571 159.571 181.158 159.571 207.786V304.214C159.571 330.842 181.158 352.429 207.786 352.429H304.214C330.842 352.429 352.428 330.842 352.428 304.214V207.786C352.428 181.158 330.842 159.571 304.214 159.571Z" fill="var(--wai-detail, #0CA678)"/>
<path d="M357.786 213.143H261.357C234.729 213.143 213.143 234.729 213.143 261.357V357.786C213.143 384.414 234.729 406 261.357 406H357.786C384.414 406 406 384.414 406 357.786V261.357C406 234.729 384.414 213.143 357.786 213.143Z" fill="var(--wai-cutout, #4C6EF5)"/>
</svg>
