<svg viewBox="0 0 512 512" fill="none" xmlns="http://www.w3.org/2000/svg">
<rect width="512" height="512" fill="#F43F5E"/>
<path d="M256 401C336.081 401 401 336.081 401 256C401 175.919 336.081 111 256 111C175.919 111 111 175.919 111 256C111 336.081 175.919 401 256 401Z" fill="white"/>
<path d="M257.098 173.44C257.098 165.649 250.213 159.333 241.719 159.333C233.226 159.333 226.34 165.649 226.34 173.44V279.242C226.34 287.033 233.226 293.349 241.719 293.349C250.213 293.349 257.098 287.033 257.098 279.242V173.44Z" fill="#F43F5E"/>
<path d="M305.811 285.33L247.779 261.884C241.952 259.53 234.501 264.37 231.138 272.695C227.774 281.021 229.771 289.678 235.598 292.033L293.63 315.479C299.457 317.833 306.908 312.993 310.271 304.668C313.635 296.342 311.638 287.685 305.811 285.33Z" fill="#F43F5E"/>
</svg>
