<svg xmlns="http://www.w3.org/2000/svg" viewBox="0 0 512 512">
<path d="M374.154 147.538H137.846C132.408 147.538 128 151.947 128 157.385C128 162.822 132.408 167.231 137.846 167.231H374.154C379.592 167.231 384 162.822 384 157.385C384 151.947 379.592 147.538 374.154 147.538Z" fill="white"/>
<path d="M196.923 196.769C218.675 196.769 236.308 179.136 236.308 157.385C236.308 135.633 218.675 118 196.923 118C175.172 118 157.539 135.633 157.539 157.385C157.539 179.136 175.172 196.769 196.923 196.769Z" fill="white"/>
<path d="M374.154 246H137.846C132.408 246 128 250.408 128 255.846C128 261.284 132.408 265.692 137.846 265.692H374.154C379.592 265.692 384 261.284 384 255.846C384 250.408 379.592 246 374.154 246Z" fill="white"/>
<path d="M324.923 295.231C346.675 295.231 364.308 277.598 364.308 255.846C364.308 234.095 346.675 216.462 324.923 216.462C303.172 216.462 285.539 234.095 285.539 255.846C285.539 277.598 303.172 295.231 324.923 295.231Z" fill="white"/>
<path d="M374.154 344.462H137.846C132.408 344.462 128 348.87 128 354.308C128 359.746 132.408 364.154 137.846 364.154H374.154C379.592 364.154 384 359.746 384 354.308C384 348.87 379.592 344.462 374.154 344.462Z" fill="white"/>
<path d="M236.308 393.692C258.059 393.692 275.692 376.059 275.692 354.308C275.692 332.556 258.059 314.923 236.308 314.923C214.556 314.923 196.923 332.556 196.923 354.308C196.923 376.059 214.556 393.692 236.308 393.692Z" fill="white"/>
</svg>
