<svg viewBox="0 0 512 512" fill="none" xmlns="http://www.w3.org/2000/svg">
<rect width="512" height="512" fill="#64748B"/>
<path d="M374.154 147.538H137.846C132.408 147.538 128 151.947 128 157.385C128 162.822 132.408 167.231 137.846 167.231H374.154C379.592 167.231 384 162.822 384 157.385C384 151.947 379.592 147.538 374.154 147.538Z" fill="white"/>
<path d="M196.923 196.769C218.675 196.769 236.308 179.136 236.308 157.385C236.308 135.633 218.675 118 196.923 118C175.172 118 157.539 135.633 157.539 157.385C157.539 179.136 175.172 196.769 196.923 196.769Z" fill="white"/>
<path d="M196.923 174.615C206.439 174.615 214.154 166.901 214.154 157.385C214.154 147.868 206.439 140.154 196.923 140.154C187.407 140.154 179.692 147.868 179.692 157.385C179.692 166.901 187.407 174.615 196.923 174.615Z" fill="#64748B"/>
<path d="M374.154 246H137.846C132.408 246 128 250.408 128 255.846C128 261.284 132.408 265.692 137.846 265.692H374.154C379.592 265.692 384 261.284 384 255.846C384 250.408 379.592 246 374.154 246Z" fill="white"/>
<path d="M324.923 295.231C346.675 295.231 364.308 277.598 364.308 255.846C364.308 234.095 346.675 216.462 324.923 216.462C303.172 216.462 285.539 234.095 285.539 255.846C285.539 277.598 303.172 295.231 324.923 295.231Z" fill="white"/>
<path d="M324.923 273.077C334.439 273.077 342.154 265.362 342.154 255.846C342.154 246.33 334.439 238.615 324.923 238.615C315.407 238.615 307.692 246.33 307.692 255.846C307.692 265.362 315.407 273.077 324.923 273.077Z" fill="#64748B"/>
<path d="M374.154 344.462H137.846C132.408 344.462 128 348.87 128 354.308C128 359.746 132.408 364.154 137.846 364.154H374.154C379.592 364.154 384 359.746 384 354.308C384 348.87 379.592 344.462 374.154 344.462Z" fill="white"/>
<path d="M236.308 393.692C258.059 393.692 275.692 376.059 275.692 354.308C275.692 332.556 258.059 314.923 236.308 314.923C214.556 314.923 196.923 332.556 196.923 354.308C196.923 376.059 214.556 393.692 236.308 393.692Z" fill="white"/>
<path d="M236.308 371.538C245.824 371.538 253.539 363.824 253.539 354.308C253.539 344.791 245.824 337.077 236.308 337.077C226.791 337.077 219.077 344.791 219.077 354.308C219.077 363.824 226.791 371.538 236.308 371.538Z" fill="#64748B"/>
</svg>
