<svg viewBox="0 0 512 512" fill="none" xmlns="http://www.w3.org/2000/svg">
<rect width="512" height="512" fill="#6366F1"/>
<path d="M380 128H132C120.954 128 112 136.954 112 148V380C112 391.046 120.954 400 132 400H380C391.046 400 400 391.046 400 380V148C400 136.954 391.046 128 380 128Z" fill="white"/>
<path d="M400 128H112V192H400V128Z" fill="#4F46E5"/>
<path d="M180 224H156C153.791 224 152 225.791 152 228V252C152 254.209 153.791 256 156 256H180C182.209 256 184 254.209 184 252V228C184 225.791 182.209 224 180 224Z" fill="#C7D2FE"/>
<path d="M236 224H212C209.791 224 208 225.791 208 228V252C208 254.209 209.791 256 212 256H236C238.209 256 240 254.209 240 252V228C240 225.791 238.209 224 236 224Z" fill="#C7D2FE"/>
<path d="M292 224H268C265.791 224 264 225.791 264 228V252C264 254.209 265.791 256 268 256H292C294.209 256 296 254.209 296 252V228C296 225.791 294.209 224 292 224Z" fill="#6366F1"/>
<path d="M348 224H324C321.791 224 320 225.791 320 228V252C320 254.209 321.791 256 324 256H348C350.209 256 352 254.209 352 252V228C352 225.791 350.209 224 348 224Z" fill="#C7D2FE"/>
<path d="M180 272H156C153.791 272 152 273.791 152 276V300C152 302.209 153.791 304 156 304H180C182.209 304 184 302.209 184 300V276C184 273.791 182.209 272 180 272Z" fill="#C7D2FE"/>
<path d="M236 272H212C209.791 272 208 273.791 208 276V300C208 302.209 209.791 304 212 304H236C238.209 304 240 302.209 240 300V276C240 273.791 238.209 272 236 272Z" fill="#C7D2FE"/>
<path d="M292 272H268C265.791 272 264 273.791 264 276V300C264 302.209 265.791 304 268 304H292C294.209 304 296 302.209 296 300V276C296 273.791 294.209 272 292 272Z" fill="#C7D2FE"/>
<path d="M348 272H324C321.791 272 320 273.791 320 276V300C320 302.209 321.791 304 324 304H348C350.209 304 352 302.209 352 300V276C352 273.791 350.209 272 348 272Z" fill="#C7D2FE"/>
<path d="M180 320H156C153.791 320 152 321.791 152 324V348C152 350.209 153.791 352 156 352H180C182.209 352 184 350.209 184 348V324C184 321.791 182.209 320 180 320Z" fill="#C7D2FE"/>
<path d="M236 320H212C209.791 320 208 321.791 208 324V348C208 350.209 209.791 352 212 352H236C238.209 352 240 350.209 240 348V324C240 321.791 238.209 320 236 320Z" fill="#C7D2FE"/>
<path d="M292 320H268C265.791 320 264 321.791 264 324V348C264 350.209 265.791 352 268 352H292C294.209 352 296 350.209 296 348V324C296 321.791 294.209 320 292 320Z" fill="#C7D2FE"/>
<path d="M348 320H324C321.791 320 320 321.791 320 324V348C320 350.209 321.791 352 324 352H348C350.209 352 352 350.209 352 348V324C352 321.791 350.209 320 348 320Z" fill="#C7D2FE"/>
</svg>
