<svg viewBox="0 0 512 512" fill="none" xmlns="http://www.w3.org/2000/svg">
<rect width="512" height="512" fill="var(--wai-bg, #8B5CF6)"/>
<path d="M364 112H148C136.954 112 128 120.954 128 132V380C128 391.046 136.954 400 148 400H364C375.046 400 384 391.046 384 380V132C384 120.954 375.046 112 364 112Z" fill="var(--wai-fg, white)"/>
<path d="M256 280C284.719 280 308 256.719 308 228C308 199.281 284.719 176 256 176C227.281 176 204 199.281 204 228C204 256.719 227.281 280 256 280Z" fill="var(--wai-cutout, #8B5CF6)"/>
<path d="M160 360C160 314.667 192 292 256 292C320 292 352 314.667 352 360H160Z" fill="var(--wai-cutout, #8B5CF6)"/>
</svg>
