<svg viewBox="0 0 512 512" fill="none" xmlns="http://www.w3.org/2000/svg">
<rect width="512" height="512" fill="#3B82F6"/>
<path d="M356 96H156C147.163 96 140 103.163 140 112V400C140 408.837 147.163 416 156 416H356C364.837 416 372 408.837 372 400V112C372 103.163 364.837 96 356 96Z" fill="white"/>
<path d="M328 168H184C179.582 168 176 171.582 176 176C176 180.418 179.582 184 184 184H328C332.418 184 336 180.418 336 176C336 171.582 332.418 168 328 168Z" fill="#3B82F6"/>
<path d="M328 208H184C179.582 208 176 211.582 176 216C176 220.418 179.582 224 184 224H328C332.418 224 336 220.418 336 216C336 211.582 332.418 208 328 208Z" fill="#93C5FD"/>
<path d="M328 248H184C179.582 248 176 251.582 176 256C176 260.418 179.582 264 184 264H328C332.418 264 336 260.418 336 256C336 251.582 332.418 248 328 248Z" fill="#93C5FD"/>
<path d="M280 288H184C179.582 288 176 291.582 176 296C176 300.418 179.582 304 184 304H280C284.418 304 288 300.418 288 296C288 291.582 284.418 288 280 288Z" fill="#93C5FD"/>
</svg>
