<svg viewBox="0 0 512 512" fill="none" xmlns="http://www.w3.org/2000/svg">
<rect width="512" height="512" fill="var(--wai-bg, #10B981)"/>
<path d="M230.448 149H128.319C119.859 149 113 158.092 113 169.308V209.924C113 221.14 119.859 230.233 128.319 230.233H230.448C238.909 230.233 245.767 221.14 245.767 209.924V169.308C245.767 158.092 238.909 149 230.448 149Z" fill="var(--wai-fg, white)"/>
<path d="M372.857 189.762H138.476C124.406 189.762 113 201.168 113 215.238V337.524C113 351.594 124.406 363 138.476 363H372.857C386.927 363 398.333 351.594 398.333 337.524V215.238C398.333 201.168 386.927 189.762 372.857 189.762Z" fill="var(--wai-fg, white)"/>
</svg>
