<svg xmlns="http://www.w3.org/2000/svg" viewBox="0 0 512 512">
<path fill="white" fill-rule="evenodd" d="M364 112H148C136.954 112 128 120.954 128 132V380C128 391.046 136.954 400 148 400H364C375.046 400 384 391.046 384 380V132C384 120.954 375.046 112 364 112Z M384 112H128V168H384V112Z M337 208H175C171.134 208 168 211.134 168 215C168 218.866 171.134 222 175 222H337C340.866 222 344 218.866 344 215C344 211.134 340.866 208 337 208Z M337 244H175C171.134 244 168 247.134 168 251C168 254.866 171.134 258 175 258H337C340.866 258 344 254.866 344 251C344 247.134 340.866 244 337 244Z M337 280H175C171.134 280 168 283.134 168 287C168 290.866 171.134 294 175 294H337C340.866 294 344 290.866 344 287C344 283.134 340.866 280 337 280Z M273 316H175C171.134 316 168 319.134 168 323C168 326.866 171.134 330 175 330H273C276.866 330 280 326.866 280 323C280 319.134 276.866 316 273 316Z"/>
</svg>
